<?xml version="1.0" encoding="utf-8"?>
<!-- Generator: Adobe Illustrator 16.0.0, SVG Export Plug-In . SVG Version: 6.00 Build 0)  -->
<!DOCTYPE svg PUBLIC "-//W3C//DTD SVG 1.1//EN" "http://www.w3.org/Graphics/SVG/1.1/DTD/svg11.dtd">
<svg version="1.1" id="Layer_1" xmlns="http://www.w3.org/2000/svg" xmlns:xlink="http://www.w3.org/1999/xlink" x="0px" y="0px"
	 width="1000px" height="1000px" viewBox="0 0 1000 1000" enable-background="new 0 0 1000 1000" xml:space="preserve">
<g>
	<g>
		<path d="M423.374,90.146C459.296-1.68,691.835,62.938,654.353,127.24c-3.005,5.367-2.888,12.455,0,17.821
			c21.859,39.33,44.33,41.438,84.336,25.733c20.426-8.11,51.545-41.319,67.284-56.191c96.355,62.129,111.49,114.293,45.174,156.508
			c-8.65,8.49-13.816,49.167-12.98,45.267c-1.316,5.748,0,13.096,4.33,17.115c56.466,51.15,143.688,146.995,41.088,202.681
			c-19.944,10.853-24.747,50.633-19.707,70.049c18.146,71.896,88.191,187.861-18.14,228.594
			c-43.612,16.609-7.571,109.322-63.556,116.988c-68.841,9.189-128.91-62.074-197.993-42.785
			c-12.435,3.447-139.309,40.994-131.679,40.225c-79.955,8.174-120.806-43.164-190.667-63.468
			c-25.592-7.532-59.167,27.198-76.048,40.226c184.295-141.756,43.071-139.709,210.486-134.351
			c18.686,0.515,45.299-2.554,59.293-17.362c57.368-60.798,10.213-162.453-68.603-183.906
			c-70.765-19.152-135.578-16.854-207.187-2.806c-122.908,24.259-13.276-106.961,47.94-89.845
			c20.722,5.747,66.315,13.984,87.097,8.617c92.27-23.244,97.857-101.213,40.732-171.959
			c18.737,23.053-228.336-129.562-103.926-114.944c42.168,5.114,73.532,14.112,105.909-15.261
			c4.085-3.829,6.128-11.813,4.322-17.171c-16.881-48.089-65.236-54.408-108.906-66.157
			c-203.462-55.684,126.208-81.861,128.192-4.852c0.541,22.792,33.221,22.792,33.221,0c0-8.878,0-17.623,0-26.502
			c0-22.792-33.221-22.792-33.221,0c0-32.439,72.503,26.249,11.107-39.139C363.667,20.16,296.145,31.52,263.042,33.25
			c-54.482,2.87-167.06-16.474-166.216,67.242c0,6.001,3.123,12.383,8.17,15.261c43.493,23.814,91.611,28.286,139.248,39.139
			c122.064,27.715-2.827,26.375-54.246,22.475c-86.142-6.572-72.865,72.412-33.103,117.433c9.316,10.726,21.15,21.706,34.546,26.24
			c16.398,5.684,32.74,11.305,48.954,17.053c41.99,4.408,40.732,46.297-3.782,125.535c-39.104-7.468-93.535-39.393-134.504-19.343
			C48.767,470.271-54.737,575.692,35.557,632.02c42.708,26.431,112.813,0,153.176-10.219c30.52-4.092,61.032-7.92,91.67-11.75
			c100.625,119.026,104.829,165.252,12.439,138.434c-50.826-5.874-55.393-0.762-103.208,12.645
			c-52.202,14.176-114.071,161.043-61.031,203.703c17.058,13.658,29.254,20.555,51.063,6.635
			c87.222-56.445,131.255-5.359,221.424,9.711c131.013,21.967,306.485,31.545,435.641-4.09c5.4-1.531,10.33-6.383,11.528-12.256
			c10.095-46.107,8.171-101.15,58.99-110.346c32.317-5.749,35.686-21.453,48.895-49.041
			c49.386-103.829-156.425-165.77,10.339-269.787c42.05-26.113,41.807-101.593,13.69-137.672
			c-43.966-56.889-113.294-98.081-34.116-167.94c33.88-29.943,31.956-55.295,36.767-96.226c5.04-42.524-59.598-99.675-98.041-95.077
			c-34.361,4.019-48.296,1.023-74.487,25.345c-31.236,34.676-70.164,55.748-116.779,63.287c2.643-4.662,15.26-19.479,14.896-29.697
			C704.089-29.141,434.665-30.029,391.233,80.824C383.004,101.768,415.264,110.766,423.374,90.146L423.374,90.146z"/>
	</g>
</g>
</svg>
