<?xml version="1.0" encoding="utf-8"?>
<!-- Generator: Adobe Illustrator 16.0.0, SVG Export Plug-In . SVG Version: 6.00 Build 0)  -->
<!DOCTYPE svg PUBLIC "-//W3C//DTD SVG 1.1//EN" "http://www.w3.org/Graphics/SVG/1.1/DTD/svg11.dtd">
<svg version="1.1" id="Layer_1" xmlns="http://www.w3.org/2000/svg" xmlns:xlink="http://www.w3.org/1999/xlink" x="0px" y="0px"
	 width="1000px" height="1000px" viewBox="0 0 1000 1000" enable-background="new 0 0 1000 1000" xml:space="preserve">
<g>
	<g>
		<path d="M645.404,83.67c-0.831,6.778-3.204,13.828,0,19.788c24.275,43.67,49.226,46.011,93.646,28.572
			c22.68-9.004,57.236-45.879,74.712-62.394c106.991,68.988,123.797,126.91,50.16,173.785c-9.605,9.427-15.342,54.595-14.413,50.264
			c-1.461,6.381,0,14.542,4.808,19.003c62.703,56.797,159.55,163.222,45.625,225.053c-22.146,12.052-27.477,56.228-21.88,77.782
			c20.146,79.836,97.923,208.599-20.146,253.83c-48.425,18.442-8.407,121.39-70.574,129.901
			c-76.438,10.204-143.137-68.926-219.849-47.508c-13.805,3.828-154.685,45.521-146.213,44.662
			c-88.781,9.081-134.141-47.925-211.713-70.472c-28.418-8.363-65.699,30.201-84.444,44.665
			c204.641-157.398,47.826-155.129,233.722-149.18c20.749,0.571,50.298-2.838,65.838-19.277
			c63.699-67.51,11.341-180.387-76.174-204.209c-78.579-21.264-150.546-18.716-230.06-3.114
			c-136.475,26.937-14.742-118.769,53.233-99.764c23.008,6.378,73.634,15.53,96.711,9.569
			c102.455-25.81,108.659-112.386,45.227-190.942c20.806,25.598-253.541-143.865-115.399-127.631
			c46.824,5.679,81.65,15.668,117.602-16.946c4.536-4.253,6.804-13.119,4.801-19.066c-18.747-53.398-72.439-60.415-120.929-73.461
			c-225.923-61.831,140.138-90.897,142.342-5.388c0.602,25.31,35.692,25.28,36.888,0C383.516-25.97,658.897-25.97,645.404,83.67z"/>
	</g>
</g>
</svg>
