<?xml version="1.0" encoding="utf-8"?>
<!-- Generator: Adobe Illustrator 16.0.0, SVG Export Plug-In . SVG Version: 6.00 Build 0)  -->
<!DOCTYPE svg PUBLIC "-//W3C//DTD SVG 1.1//EN" "http://www.w3.org/Graphics/SVG/1.1/DTD/svg11.dtd">
<svg version="1.1" id="Layer_1" xmlns="http://www.w3.org/2000/svg" xmlns:xlink="http://www.w3.org/1999/xlink" x="0px" y="0px"
	 width="1000px" height="1000px" viewBox="-496 -496 1000 1000" enable-background="new -496 -496 1000 1000" xml:space="preserve">
<rect x="-496.88" y="-496" width="1000.88" height="1000"/>
<g>
	<g>
		<path fill="#FFFFFF" d="M-72.974-405.767c35.962-91.753,268.755-27.186,231.231,37.064c-3.009,5.363-2.892,12.445,0,17.807
			c21.884,39.299,44.378,41.405,84.427,25.713c20.449-8.104,51.602-41.287,67.359-56.147
			c96.461,62.081,111.612,114.203,45.223,156.385c-8.66,8.484-13.832,49.128-12.995,45.231c-1.318,5.743,0,13.086,4.335,17.103
			c56.527,51.109,143.845,146.878,41.133,202.52c-19.966,10.844-24.774,50.594-19.729,69.993
			c18.165,71.84,88.288,187.713-18.16,228.413c-43.66,16.597-7.579,109.237-63.625,116.896
			c-68.914,9.182-129.05-62.023-198.21-42.752c-12.446,3.446-139.459,40.961-131.821,40.192
			c-80.043,8.168-120.938-43.131-190.875-63.417c-25.621-7.526-59.232,27.179-76.132,40.193
			c184.497-141.644,43.118-139.599,210.716-134.244c18.707,0.515,45.348-2.55,59.358-17.349
			c57.432-60.749,10.224-162.325-68.677-183.761c-70.842-19.139-135.727-16.843-207.413-2.804
			c-123.042,24.239-13.291-106.876,47.993-89.773c20.745,5.743,66.389,13.972,87.192,8.61
			c92.37-23.226,97.964-101.133,40.777-171.823c18.758,23.035-228.585-129.459-104.039-114.853
			c42.214,5.109,73.612,14.101,106.024-15.249c4.089-3.826,6.134-11.803,4.326-17.157c-16.899-48.052-65.307-54.365-109.025-66.104
			c-203.685-55.64,126.347-81.797,128.332-4.848c0.542,22.774,33.258,22.774,33.258,0c0-8.872,0-17.609,0-26.48
			c0-22.775-33.258-22.775-33.258,0c0-32.415,72.583,26.228,11.121-39.109c-28.619-30.179-96.216-18.829-129.354-17.101
			c-54.543,2.867-167.242-16.461-166.398,67.188c0,5.998,3.126,12.375,8.179,15.25c43.541,23.795,91.711,28.263,139.4,39.108
			c122.198,27.693-2.83,26.354-54.306,22.457c-86.235-6.567-72.944,72.354-33.138,117.34c9.327,10.718,21.174,21.688,34.583,26.22
			c16.417,5.679,32.776,11.295,49.008,17.039c42.037,4.405,40.778,46.261-3.786,125.436c-39.147-7.462-93.637-39.361-134.651-19.329
			c-53.401,25.966-157.019,131.304-66.625,187.588c42.755,26.409,112.936,0,153.343-10.212c30.553-4.088,61.099-7.913,91.771-11.74
			c100.735,118.934,104.943,165.121,12.454,138.325c-50.883-5.87-55.453-0.761-103.32,12.633
			c-52.26,14.163-114.197,160.917-61.099,203.543c17.076,13.646,29.286,20.539,51.119,6.629
			c87.318-56.4,131.399-5.355,221.666,9.705c131.155,21.949,306.82,31.519,436.116-4.088c5.406-1.53,10.343-6.377,11.541-12.246
			c10.106-46.071,8.181-101.072,59.055-110.259c32.354-5.744,35.725-21.436,48.948-49.003
			C509.817,205.22,303.783,143.33,470.728,39.394c42.096-26.095,41.853-101.513,13.707-137.563
			c-44.014-56.844-113.418-98.004-34.153-167.808c33.917-29.919,31.99-55.251,36.806-96.149
			c5.046-42.491-59.662-99.597-98.148-95.002c-34.398,4.016-48.348,1.022-74.568,25.325
			c-31.271,34.648-70.241,55.704-116.908,63.237c2.646-4.659,15.277-19.463,14.913-29.674
			c-4.326-126.719-274.044-127.606-317.524-16.841C-113.388-394.154-81.094-385.163-72.974-405.767L-72.974-405.767z"/>
	</g>
</g>
</svg>
